<svg xmlns="http://www.w3.org/2000/svg" width="40" height="40" viewBox="0 0 24 24"><g fill="none"><path fill="#A53DFF" fill-rule="evenodd" d="M19.715 12L12 4.286L4.286 12L12 19.714zm-9.857 3.428H9v-3H7.286v-.857H9v-3h.858l4.285 5.383V8.571H15v3h1.715v.857H15v3h-.857l-4.285-5.352z" clip-rule="evenodd"/><path fill="#632599" d="M9.858 15.428H9v-3H7.286v-.857H9v-.766a3.7 3.7 0 0 0-.767-.09C6.305 10.714 4.286 12 4.286 12L12 19.714l7.693-7.688c-.257.146-1.753.831-3.981.831q-.348-.001-.712-.053v2.624h-.857l-3.178-3.969a21 21 0 0 0-1.107-.414z"/><path fill="#632599" d="m12.713 12.157l1.43 1.797v-1.327a15 15 0 0 1-1.43-.47"/></g></svg>